<svg width="220" height="72" viewBox="0 0 220 72" fill="none" xmlns="http://www.w3.org/2000/svg">
<g filter="url(#filter0_d_63_142)">
<rect x="4.00848" y="4" width="208" height="60" rx="4" fill="white"/>
<path d="M186.536 34.8217C186.502 30.827 189.812 28.8799 189.966 28.7929C188.09 26.0629 185.183 25.6882 184.158 25.6614C181.713 25.4072 179.348 27.1201 178.102 27.1201C176.836 27.1201 174.92 25.6882 172.85 25.7283C170.19 25.7684 167.705 27.3075 166.345 29.6895C163.531 34.554 165.628 41.7002 168.328 45.6346C169.674 47.5617 171.249 49.7096 173.312 49.6359C175.328 49.5556 176.085 48.3512 178.517 48.3512C180.929 48.3512 181.639 49.6359 183.742 49.5891C185.906 49.5556 187.273 47.6553 188.572 45.7149C190.133 43.5068 190.756 41.3322 190.783 41.2251C190.729 41.1916 186.576 39.6059 186.536 34.8217ZM182.563 23.0719C183.649 21.7136 184.392 19.8735 184.184 18C182.617 18.0669 180.647 19.0839 179.522 20.4088C178.524 21.5798 177.626 23.4934 177.861 25.2934C179.616 25.4205 181.431 24.4034 182.563 23.0719Z" fill="black"/>
<path d="M32.5065 40C36.2505 40 38.6085 37.696 38.6085 33.97C38.6085 30.244 36.2505 27.94 32.5065 27.94H27.0165V40H32.5065ZM32.5065 29.686C35.2965 29.686 36.5565 30.874 36.5565 33.97C36.5565 37.066 35.2965 38.254 32.5065 38.254H28.9425V29.686H32.5065ZM44.6289 40.18C47.6169 40.18 49.6149 38.29 49.6149 35.536C49.6149 32.746 47.6169 30.874 44.6289 30.874C41.6589 30.874 39.6609 32.746 39.6609 35.536C39.6609 38.29 41.6589 40.18 44.6289 40.18ZM44.6289 38.452C42.4689 38.452 41.5689 37.426 41.5689 35.536C41.5689 33.628 42.4689 32.584 44.6289 32.584C46.8069 32.584 47.7069 33.628 47.7069 35.536C47.7069 37.426 46.8069 38.452 44.6289 38.452ZM55.3097 40L57.2897 34.852L57.9737 32.656H58.1177L58.8017 34.852L60.7637 40H63.1757L65.8937 31.054H63.9137L62.4197 36.13L62.0057 38.434H61.8617L61.1957 35.95L59.3057 31.054H56.8217L54.9497 35.95L54.2837 38.434H54.1397L53.7257 36.13L52.2317 31.054H50.2157L52.8977 40H55.3097ZM68.8251 40V35.572C68.8251 33.628 69.7071 32.62 71.6691 32.62C73.5231 32.62 74.2791 33.466 74.2791 35.14V40H76.2231V34.618C76.2231 32.548 74.9991 30.874 72.5151 30.874C70.2471 30.874 69.0591 32.314 68.7891 33.826H68.6631V31.054H66.8811V40H68.8251ZM79.8994 40V27.94H77.9554V40H79.8994ZM86.2715 40.18C89.2595 40.18 91.2575 38.29 91.2575 35.536C91.2575 32.746 89.2595 30.874 86.2715 30.874C83.3015 30.874 81.3035 32.746 81.3035 35.536C81.3035 38.29 83.3015 40.18 86.2715 40.18ZM86.2715 38.452C84.1115 38.452 83.2115 37.426 83.2115 35.536C83.2115 33.628 84.1115 32.584 86.2715 32.584C88.4495 32.584 89.3495 33.628 89.3495 35.536C89.3495 37.426 88.4495 38.452 86.2715 38.452ZM95.2962 40.18C97.3302 40.18 98.7522 39.28 99.2203 37.768H99.3463V40H101.128V34.564C101.128 32.422 99.8503 30.874 97.0062 30.874C94.1622 30.874 92.4702 32.404 92.4702 34.438V34.51H94.3962V34.438C94.3962 33.124 95.2062 32.584 96.8622 32.584C98.5722 32.584 99.2203 33.106 99.2203 34.582V35.104L95.1522 35.536C93.3882 35.734 92.2722 36.454 92.2722 37.84C92.2722 39.316 93.4422 40.18 95.2962 40.18ZM94.2162 37.714C94.2162 37.012 94.7022 36.778 95.7102 36.652L99.2203 36.256C99.2203 38.02 97.8523 38.776 95.8182 38.776C94.7022 38.776 94.2162 38.434 94.2162 37.714ZM106.806 40.18C108.822 40.18 110.136 39.208 110.514 37.426H110.64V40H112.422V27.94H110.478V33.484H110.37C110.01 31.972 108.804 30.874 106.68 30.874C103.962 30.874 102.414 32.746 102.414 35.536C102.414 38.29 103.98 40.18 106.806 40.18ZM104.376 35.536C104.376 33.376 105.492 32.638 107.364 32.638C109.362 32.638 110.478 33.574 110.478 35.482V35.626C110.478 37.498 109.308 38.398 107.4 38.398C105.474 38.398 104.376 37.678 104.376 35.536ZM118.555 40L119.941 36.868H126.313L127.699 40H129.895L124.513 27.94H121.777L116.395 40H118.555ZM122.353 31.45L123.055 29.74H123.199L123.901 31.45L125.539 35.122H120.715L122.353 31.45ZM132.739 43.06V37.48H132.811C133.171 39.118 134.467 40.18 136.483 40.18C139.273 40.18 140.803 38.308 140.803 35.536C140.803 32.764 139.237 30.874 136.465 30.874C134.359 30.874 133.099 31.882 132.739 33.538H132.577V31.054H130.795V43.06H132.739ZM132.739 35.68V35.518C132.739 33.592 133.855 32.656 135.853 32.656C137.725 32.656 138.859 33.376 138.859 35.536C138.859 37.678 137.743 38.416 135.817 38.416C133.909 38.416 132.739 37.516 132.739 35.68ZM144.095 43.06V37.48H144.167C144.527 39.118 145.823 40.18 147.839 40.18C150.629 40.18 152.159 38.308 152.159 35.536C152.159 32.764 150.593 30.874 147.821 30.874C145.715 30.874 144.455 31.882 144.095 33.538H143.933V31.054H142.151V43.06H144.095ZM144.095 35.68V35.518C144.095 33.592 145.211 32.656 147.209 32.656C149.081 32.656 150.215 33.376 150.215 35.536C150.215 37.678 149.099 38.416 147.173 38.416C145.265 38.416 144.095 37.516 144.095 35.68Z" fill="black"/>
</g>
<defs>
<filter id="filter0_d_63_142" x="0.708484" y="0.7" width="218.6" height="70.6" filterUnits="userSpaceOnUse" color-interpolation-filters="sRGB">
<feFlood flood-opacity="0" result="BackgroundImageFix"/>
<feColorMatrix in="SourceAlpha" type="matrix" values="0 0 0 0 0 0 0 0 0 0 0 0 0 0 0 0 0 0 127 0" result="hardAlpha"/>
<feOffset dx="2" dy="2"/>
<feGaussianBlur stdDeviation="2.65"/>
<feComposite in2="hardAlpha" operator="out"/>
<feColorMatrix type="matrix" values="0 0 0 0 0 0 0 0 0 0 0 0 0 0 0 0 0 0 0.55 0"/>
<feBlend mode="normal" in2="BackgroundImageFix" result="effect1_dropShadow_63_142"/>
<feBlend mode="normal" in="SourceGraphic" in2="effect1_dropShadow_63_142" result="shape"/>
</filter>
</defs>
</svg>
