<svg width="20" height="20" viewBox="0 0 20 20" fill="none" xmlns="http://www.w3.org/2000/svg">
<g clip-path="url(#clip0_60_208)">
<path d="M6.80338 6.66695C6.32067 6.6594 5.85556 6.48443 5.48755 6.17195C4.71993 5.46797 4.25489 4.49398 4.19005 3.45445C3.98755 1.37695 5.12088 0.151118 6.34505 0.0144514C6.64001 -0.0182515 6.93853 0.00871914 7.22285 0.093758C7.50718 0.178797 7.77148 0.320166 8.00005 0.509451C8.34103 0.816813 8.61787 1.18856 8.81466 1.6033C9.01145 2.01804 9.1243 2.4676 9.14672 2.92612C9.33338 4.86278 8.44005 6.66695 6.80338 6.66695ZM6.53005 1.66695C6.04922 1.72028 5.76255 2.40279 5.84922 3.28862C5.87336 3.88373 6.11883 4.44838 6.53755 4.87195C6.61688 4.94987 6.72228 4.9956 6.83338 5.00029C7.12588 4.96778 7.59671 4.21612 7.48588 3.08362C7.20088 1.52862 6.55088 1.66695 6.53005 1.67112V1.66695ZM2.63672 11.667C2.154 11.6594 1.68889 11.4844 1.32088 11.172C0.553267 10.468 0.0882262 9.49398 0.0233823 8.45445C-0.179118 6.37695 0.954216 5.15112 2.17838 5.01445C2.47333 4.98213 2.77176 5.00928 3.05602 5.09431C3.34029 5.17933 3.60462 5.32049 3.83338 5.50945C4.17436 5.81681 4.45121 6.18856 4.648 6.6033C4.84479 7.01804 4.95763 7.4676 4.98005 7.92612C5.16672 9.86278 4.23088 11.667 2.63672 11.667ZM2.36338 6.66695C1.88255 6.72028 1.59588 7.40278 1.68255 8.28862C1.70669 8.88373 1.95217 9.44838 2.37088 9.87195C2.45099 9.94871 2.55594 9.99424 2.66672 10.0003C2.95922 9.96778 3.43005 9.21612 3.31922 8.08362C3.09838 6.56028 2.38422 6.66695 2.36338 6.67112V6.66695ZM13.1967 6.66695C11.7734 6.67695 10.6684 4.86195 10.8575 2.92362C10.88 2.4651 10.9928 2.01554 11.1896 1.6008C11.3864 1.18606 11.6632 0.814313 12.0042 0.506951C12.2326 0.318801 12.4963 0.178287 12.7798 0.0937011C13.0633 0.00911463 13.3609 -0.0178318 13.655 0.0144514C14.8792 0.151118 16.0125 1.37695 15.81 3.45445C15.7454 4.49428 15.2804 5.4686 14.5125 6.17279C14.1444 6.48496 13.6793 6.65963 13.1967 6.66695ZM12.5167 3.08362C12.4059 4.21279 12.8767 4.96445 13.1692 5.00029C13.2782 4.99599 13.3822 4.95318 13.4625 4.87945C13.8813 4.45588 14.1267 3.89123 14.1509 3.29612C14.3259 1.11195 12.6667 1.25445 12.5167 3.08362ZM17.3634 11.667C15.8117 11.667 14.835 9.86195 15.0242 7.92362C15.0466 7.4651 15.1595 7.01554 15.3563 6.6008C15.5531 6.18606 15.8299 5.81431 16.1709 5.50695C16.3989 5.31812 16.6625 5.177 16.9461 5.09197C17.2297 5.00694 17.5274 4.97973 17.8217 5.01195C19.0459 5.14862 20.1792 6.37445 19.9767 8.45195C19.9121 9.49178 19.447 10.4661 18.6792 11.1703C18.3114 11.4834 17.8463 11.6589 17.3634 11.667ZM16.6834 8.08362C16.5725 9.21278 17.0434 9.96445 17.3359 10.0003C17.4446 9.99455 17.548 9.95193 17.6292 9.87945C18.0479 9.45588 18.2934 8.89123 18.3175 8.29612C18.4009 7.41028 18.1175 6.72778 17.6367 6.67445C17.6159 6.66695 16.7625 6.59278 16.6834 8.08362ZM13.3334 20.0003C12.621 20.0145 11.9176 19.8403 11.2942 19.4953C10.8952 19.2851 10.451 19.1752 10 19.1752C9.54907 19.1752 9.10488 19.2851 8.70588 19.4953C6.19505 20.9028 3.26838 19.3561 3.33338 15.8336C3.33338 11.9711 7.08922 8.33362 10 8.33362C12.9109 8.33362 16.6667 11.9703 16.6667 15.8336C16.6667 18.287 15.2959 20.0003 13.3334 20.0003ZM10 17.5003C10.7123 17.4863 11.4156 17.6602 12.0392 18.0045C13.9034 19.0195 15.0292 17.6436 15 15.8336C15 13.017 12.0659 10.0003 10 10.0003C7.93422 10.0003 5.00005 13.017 5.00005 15.8336C4.97338 17.6411 6.09005 19.0195 7.96088 18.0045C8.58451 17.6602 9.28784 17.4863 10 17.5003Z" fill="white"/>
</g>
<defs>
<clipPath id="clip0_60_208">
<rect width="20" height="20" fill="white"/>
</clipPath>
</defs>
</svg>
