<svg width="522" height="544" viewBox="0 0 522 544" fill="none" xmlns="http://www.w3.org/2000/svg">
<path d="M264.594 22.3352C305.786 22.3261 361.336 33.7987 406.607 50.2092C429.246 58.4157 449.426 67.8965 463.998 77.8674C471.282 82.8519 477.24 88.0079 481.399 93.2512C485.555 98.4901 488.019 103.951 488.046 109.493V109.519L486.731 273.733V273.817L486.723 273.9C475.109 400.207 387.048 506.343 265.14 540.959L264.594 541.115L264.048 540.959C142.14 506.342 54.0804 400.207 42.4655 273.9L42.4577 273.817L42.4568 273.733L41.1423 109.519V109.485L41.1433 109.451C41.4967 95.8666 51.031 83.7245 65.6296 73.2502C80.2911 62.7309 100.473 53.5849 123.053 46.0647C168.224 31.0211 223.471 22.325 264.594 22.3342V22.3352Z" fill="#FBBC05" stroke="black" stroke-width="4"/>
<path fill-rule="evenodd" clip-rule="evenodd" d="M257.153 436.683L257.159 436.647C255.897 445.004 251.088 452.1 242.731 457.934C233.27 464.399 221.444 485.922 242.731 485.922C248.316 485.922 261.416 483.426 265.673 478.748C266.935 477.487 268.196 474.648 269.458 470.233C270.877 466.133 272.375 463.374 273.952 461.955C276.159 470.47 277.031 489.35 270.566 502.595C264.258 515.367 262.208 525.065 264.416 531.687C270.723 535.314 283.653 533.314 303.206 529.687C307.148 487.271 308.094 423.866 303.206 348.336C316.136 345.498 320.941 342.668 326.46 342.984C334.975 343.299 352.563 345.678 357.767 352.616C380.788 382.734 393.462 403.139 397.246 411.339C398.823 415.123 403.869 434.274 412.384 467.072C412.068 469.752 412.857 497.64 412.384 500.163C423.483 522.633 434.38 515.898 446.916 515.898C446.285 511.01 444.551 496.251 438.874 488.682C432.567 480.64 435.642 466.685 434.38 461.955C433.592 458.486 432.882 453.046 432.251 445.635C431.778 437.751 431.148 431.995 430.359 428.369C419.164 377.91 408.126 336.677 397.246 304.667C402.304 305.992 417.774 312.714 428.573 312.087C446.054 311.071 464.458 305.992 461.745 297.491C460.799 292.918 458.119 290.395 453.704 289.922C452.915 289.764 450.865 289.686 447.554 289.686C444.873 289.686 442.666 289.449 440.931 288.976C433.969 287.292 424.439 290.713 416.823 288.976C398.047 284.694 381.334 274.418 373.594 263.985C361.452 247.429 343.647 238.047 340.178 235.839C333.398 231.424 333.385 227.482 320.14 224.013C302.164 219.282 256.544 176.991 251.656 172.418C246.295 167.372 243.378 162.957 242.905 159.173C242.432 154.284 244.56 145.454 249.291 132.682C253.39 121.329 254.021 112.341 251.183 105.718C251.025 108.714 250.714 86.3236 244.722 77.8088C242.83 74.9705 240.07 71.3438 236.444 66.9287C232.029 61.5675 229.19 58.0985 227.929 56.5217C223.041 57.9409 218.783 62.5136 215.157 70.2401C211.215 78.9126 207.667 84.1949 204.513 86.0871C203.625 85.8821 195.642 82.4158 190.292 81.2366C183.295 79.6947 175.59 80.1897 174.786 78.0453C173.525 74.2609 172.5 71.5015 171.711 69.767C168.873 63.7751 165.01 60.7791 160.122 60.7791C154.603 60.7791 147.822 63.6238 143.565 72.7694C142.777 74.5039 138.677 80.6891 132.686 97.8764C124.171 122.159 123.066 144.035 124.17 153.496C127.639 183.14 132.212 201.904 137.888 209.788C138.519 210.419 140.411 211.129 143.565 211.917C146.088 212.548 147.428 213.731 147.586 215.465C146.324 220.826 132.196 233.553 129.2 243.644C126.046 254.051 123.839 261.857 122.577 267.06C118.004 285.351 116.822 302.065 119.029 317.203C120.448 326.821 121.237 341.88 121.395 362.379C121.552 384.139 122.183 399.986 123.287 409.92C123.76 414.65 124.785 420.958 126.361 428.842C128.411 438.46 129.673 444.846 130.146 448C132.511 463.137 132.038 476.225 128.727 487.263C121.316 496.724 111.235 510.599 108.554 525.421C108.554 536.668 139.396 540.062 154.36 523.258C157.991 519.179 160.399 495.102 157.876 474.288C156.615 462.777 159.554 442.875 161.603 422.219C163.811 399.197 167.145 383.583 166.988 376.96C166.515 361.981 172.736 337.691 178.097 335.168C198.596 347.783 242.179 358.91 244.386 360.013C246.279 361.117 247.382 362.3 247.698 363.561C253.724 412.701 256.874 437.081 257.146 436.701L257.153 436.683Z" fill="white"/>
<path fill-rule="evenodd" clip-rule="evenodd" d="M169.791 246.047C167.722 247.247 164.883 240.228 166.121 237.025C170.482 225.743 174.604 228.876 173.882 234.39C173.161 239.891 173.882 243.675 169.791 246.047Z" fill="#323232"/>
<path fill-rule="evenodd" clip-rule="evenodd" d="M233.907 49.2365C233.139 47.5113 232.371 45.7859 231.546 44.0988C229.743 40.4119 224.874 39.2698 222.225 41.9048C220.66 43.4622 219.107 45.0327 217.553 46.6032L217.553 46.6033L217.553 46.6033L217.553 46.6034L217.553 46.6035L217.553 46.6036L217.553 46.6036L217.553 46.6038L217.553 46.604L217.552 46.6044L217.551 46.6054C214.16 50.0349 210.768 53.4643 207.248 56.7569L206.749 57.229C202.282 61.4958 198.576 66.251 196.094 71.9275C195.895 72.3836 195.935 72.9444 195.975 73.5051C195.994 73.765 196.013 74.0248 196.007 74.2743C196.277 74.2406 196.574 74.2367 196.871 74.2329C197.526 74.2244 198.181 74.2159 198.548 73.8865C199.243 73.2628 199.799 72.4898 200.357 71.7142L200.357 71.7141L200.357 71.7141L200.357 71.714L200.357 71.714L200.358 71.714C200.708 71.2271 201.059 70.7393 201.446 70.2867C205.513 65.5238 209.604 60.7802 213.725 56.0639C213.917 55.8444 214.26 55.7565 214.602 55.6685C214.762 55.6277 214.921 55.5868 215.065 55.5326C215.057 55.7047 215.058 55.8798 215.059 56.0548V56.0549C215.062 56.4344 215.065 56.8138 214.964 57.1633C214.703 58.066 214.404 58.9612 214.105 59.8559C213.543 61.5346 212.982 63.212 212.677 64.9357C211.869 69.506 211.282 74.1302 210.951 78.7568C210.901 79.4577 211.877 80.2971 212.763 80.984L213.358 81.4398C213.516 81.5608 215.056 80.5435 215.231 79.8648C215.65 78.2442 215.973 76.5987 216.295 74.9533L216.296 74.9529C216.618 73.308 216.941 71.663 217.359 70.0428C217.561 69.2628 217.759 68.4821 217.957 67.7016L217.957 67.7015C219.631 61.1045 221.3 54.5267 225.003 48.5711C226.763 45.7406 227.76 46.6768 228.776 48.4865L230.301 51.2223C232.199 54.6479 234.071 58.0967 235.959 61.5753L235.96 61.5769L235.969 61.5937C237.602 64.6029 239.248 67.6345 240.933 70.6928C241.627 72.1822 242.343 73.6461 243.052 75.0982C244.97 79.0242 246.847 82.864 248.151 86.8892C249.769 91.8837 251.515 97.4244 250.872 102.424C250.014 109.092 244.67 123.702 244.67 123.702C238.488 144.487 208.511 184.025 196.03 191.72C184.578 198.78 172.175 203.324 158.533 203.856C150.873 204.154 144.364 201.186 138.071 197.327L137.173 196.77C132.105 193.59 128.82 189.562 128.35 183.331C127.989 178.548 127.532 173.769 127.075 168.991L127.075 168.991L127.075 168.991L127.075 168.991L127.075 168.991L127.075 168.99L127.075 168.99L127.075 168.99L127.075 168.99L127.075 168.99L127.075 168.99C126.32 161.089 125.564 153.191 125.244 145.273C124.898 136.718 125.504 128.042 126.579 119.534C127.536 111.952 129.176 104.441 130.883 96.9678L131.617 93.7672C135.566 76.5793 144.974 62.7049 158.182 51.2645C162.915 47.1642 166.924 47.8403 169.976 53.325C171.275 55.66 172.514 58.0282 173.753 60.3963C175.02 62.8169 176.287 65.2375 177.618 67.6227C177.943 68.2064 178.589 68.6117 179.234 69.0169C179.532 69.204 179.83 69.3911 180.097 69.5958C180.111 69.274 180.161 68.9366 180.211 68.5993C180.32 67.8696 180.428 67.14 180.177 66.568L179.77 65.6391L179.769 65.6388C177.701 60.9209 175.628 56.1926 173.22 51.6462C169.694 44.9872 163.062 41.8304 155.997 47.1495C147.082 53.8599 139.908 62.2438 134.416 71.7816C131.604 76.6648 129.802 82.1651 128.016 87.6154L128.016 87.6154L128.016 87.6156C127.648 88.7388 127.281 89.8599 126.906 90.973L126.548 92.0471C123.246 102.083 121.002 112.387 120.266 122.953C120.032 126.308 120.12 129.687 120.208 133.063L120.208 133.064C120.236 134.125 120.264 135.187 120.282 136.247C120.31 137.922 120.327 139.597 120.345 141.273V141.273V141.273C120.4 146.331 120.454 151.39 120.783 156.431C121.044 160.431 121.454 164.423 121.863 168.415C122.348 173.137 122.832 177.858 123.071 182.592L123.098 183.047C124.108 197.997 137.424 206.252 148.734 209.037C158.534 211.45 169.065 210.889 179.149 207.008C190.648 203.399 200.082 196.56 208.976 189.306C220.477 179.927 249.464 131.578 254.45 114.349C257.423 104.078 256.919 94.4213 252.933 84.6022C249.393 75.8837 244.754 67.8918 239.507 60.1005C237.247 56.7441 235.577 52.9907 233.907 49.2365ZM121.516 308.879L121.516 308.878C121.206 302.476 120.895 296.047 121.45 289.708C122.457 278.208 125.162 267.026 130.41 256.552C132.542 252.297 134.292 247.784 135.639 243.218C137.335 237.471 140.94 233.078 144.569 228.657C145.203 227.885 145.837 227.112 146.462 226.331C149.345 222.728 152.096 219.004 154.652 215.165C155.928 213.246 156.473 212.97 157.77 215.113C163.163 224.026 175.532 226.02 184.354 220.446C198.788 211.328 211.219 199.851 223.648 188.376L224.461 187.626C230.301 182.235 235.512 176.117 238.146 168.301C238.435 167.443 239.089 166.64 239.753 165.996C240.228 165.535 240.809 165.184 241.391 164.833C241.645 164.679 241.899 164.526 242.145 164.363C242.125 164.639 242.119 164.92 242.112 165.2C242.099 165.803 242.085 166.406 241.94 166.976C239.688 175.867 234.486 183.027 228.182 189.371C220.567 197.035 212.927 204.719 204.764 211.778C198.844 216.899 192.194 221.229 185.586 225.472C183.42 226.863 180.659 227.431 178.013 227.976C177.663 228.048 177.315 228.119 176.971 228.192C174.922 228.627 174.295 229.533 174.225 231.531C174.201 232.194 174.194 232.863 174.187 233.533C174.147 237.246 174.107 241.003 171.311 244.017C170.102 245.32 168.568 246.382 167.02 247.27C166.567 247.53 165.195 247.039 164.85 246.503C161.47 241.244 159.885 235.64 165 230.614C166.856 228.789 164.777 227.875 164.229 227.707C161.433 226.852 159.899 224.782 158.347 222.689L158.347 222.688L158.347 222.688L158.346 222.688L158.346 222.688L158.346 222.688L158.346 222.688L158.346 222.688L158.346 222.688L158.346 222.687L158.346 222.687L158.346 222.687C158.019 222.247 157.692 221.806 157.352 221.375C157.009 220.939 155.415 220.763 155.231 221.034C153.58 223.456 151.827 225.813 150.073 228.171L150.073 228.171L150.073 228.171L150.073 228.171L150.073 228.171L150.073 228.171L150.072 228.171L150.072 228.172L150.072 228.172L150.072 228.172L150.072 228.172L150.072 228.172C145.587 234.201 141.101 240.23 138.338 247.354C137.632 249.176 136.918 250.995 136.204 252.815C134.063 258.271 131.922 263.728 129.978 269.253C125.704 281.406 124.829 293.991 125.687 306.77C125.805 308.513 125.927 310.256 126.05 312C126.572 319.44 127.095 326.884 127.2 334.331C127.335 343.911 126.951 353.509 126.481 363.084C126.264 367.5 125.838 371.905 125.413 376.31C125.146 379.073 124.879 381.836 124.664 384.602C123.795 395.757 125.627 406.669 127.584 417.594C128.358 421.916 128.796 426.301 129.233 430.682C129.353 431.882 129.473 433.08 129.6 434.278C130.953 447.08 132.119 459.955 130.48 472.753C130.196 474.967 130.027 477.214 129.858 479.466C129.323 486.583 128.786 493.744 124.61 500.039C123.211 502.147 121.565 504.25 119.589 505.784C118.641 506.521 117.811 507.054 117.051 507.543C114.37 509.266 112.547 510.438 109.384 518.05C106.054 526.067 109.746 528.892 112.117 530.706C112.636 531.103 113.092 531.452 113.397 531.796C112.635 533.193 108.601 532.905 107.078 531.796C102.251 528.282 102.251 521.888 104.291 516.187C106.535 509.921 109.504 504.587 115.59 502.226C121.61 499.89 123.486 494.819 124.321 489.492C125.769 480.248 127.118 470.888 127.23 461.561C127.324 453.79 126.427 445.99 125.534 438.22L125.534 438.219C125.368 436.779 125.203 435.341 125.044 433.903C123.815 422.795 122.533 411.675 120.694 400.657C119.393 392.858 119.942 385.131 120.49 377.407C120.668 374.905 120.846 372.403 120.96 369.9C121.29 362.718 121.855 355.547 122.421 348.375C122.787 343.728 123.154 339.08 123.456 334.429C123.579 332.536 123.476 330.628 123.367 328.614C123.309 327.537 123.25 326.429 123.222 325.278C123.034 323.654 122.806 322.081 122.582 320.539C122.184 317.805 121.801 315.169 121.686 312.521C121.633 311.311 121.575 310.098 121.516 308.885L121.516 308.885L121.516 308.884L121.516 308.883L121.516 308.883L121.516 308.882L121.516 308.881L121.516 308.881L121.516 308.88L121.516 308.879L121.516 308.879ZM168.399 242.559C170.309 240.75 170.307 238.467 170.305 236.179C170.303 234.391 170.302 232.6 171.211 231.03C171.352 230.786 170.702 229.688 170.325 229.632C169.752 229.548 168.792 229.853 168.53 230.303C167.811 231.54 167.193 232.836 166.576 234.132C166.294 234.724 166.012 235.316 165.72 235.902C164.182 238.994 165.405 241.176 168.399 242.559ZM274.643 502.515C276.172 499.107 277.419 495.359 277.75 491.67C278.596 482.273 279.245 472.824 279.247 463.396C279.25 455.852 278.882 448.308 278.514 440.763L278.514 440.762L278.514 440.758L278.513 440.754C278.348 437.352 278.182 433.949 278.05 430.546C277.981 428.768 277.931 426.989 277.882 425.21V425.209V425.209V425.208C277.846 423.936 277.81 422.663 277.768 421.391C277.147 402.85 271.475 385.806 262.075 369.984C261.136 368.404 258.1 366.984 256.259 367.219C250.36 367.973 244.762 366.938 239.098 365.889L239.095 365.889L239.09 365.888C238.087 365.702 237.083 365.517 236.074 365.34C227.256 363.799 218.766 361.379 211.03 357.011C204.59 353.374 198.458 349.173 192.343 344.983L192.342 344.982L192.342 344.982L192.342 344.982C191.777 344.595 191.213 344.208 190.648 343.822C186.05 340.677 181.502 337.389 177.33 333.713C174.912 331.582 173.631 332.758 172.714 334.557C168.707 342.414 164.945 350.434 163.836 359.297C162.247 371.998 160.694 384.713 159.59 397.463C158.47 410.395 157.652 423.354 156.835 436.312C156.676 438.831 156.517 441.35 156.356 443.87C155.758 453.208 155.305 462.557 154.883 471.906C154.55 479.281 155.066 486.481 156.422 493.877C158.059 502.811 158.248 512.487 154.374 521.043C150.922 528.668 144.444 533.677 135.732 534.616C130.724 535.157 127.12 529.761 129.836 525.451C131.235 523.23 133.485 521.518 135.698 519.835C136.309 519.371 136.917 518.909 137.503 518.438C137.868 518.146 138.578 518.285 139.289 518.423L139.29 518.423C139.617 518.487 139.945 518.551 140.239 518.573C140.131 518.835 140.038 519.109 139.945 519.382C139.739 519.987 139.533 520.593 139.166 521.076C138.773 521.592 138.293 522.063 137.815 522.531C137.048 523.283 136.288 524.027 135.919 524.939C135.431 526.146 135.655 528.09 136.372 529.169C136.817 529.837 139.137 530.066 139.995 529.518C145.453 526.037 150.172 521.912 151.145 514.891C151.3 513.778 151.651 512.67 152.001 511.569C152.497 510.006 152.989 508.456 152.906 506.922C152.639 501.936 152.091 496.965 151.543 491.994L151.543 491.993C151.278 489.586 151.012 487.178 150.779 484.768L150.742 484.393L150.742 484.393C150.463 481.515 150.182 478.627 150.157 475.742C150.071 466.246 150.023 456.747 150.13 447.25L150.147 445.699C150.302 431.94 150.457 418.179 150.907 404.429C151.104 398.41 151.76 392.401 152.415 386.402C152.515 385.489 152.614 384.575 152.712 383.663C153.445 376.844 154.238 370.023 155.304 363.25C157.112 351.769 160.32 340.717 166.358 330.654C167.33 329.034 166.985 326.245 162.693 326.632C160.504 326.829 156.617 327.59 153.209 328.258L153.208 328.258L153.208 328.258L153.207 328.258L153.207 328.258L153.207 328.258L153.202 328.259C149.93 328.9 147.101 329.454 146.642 329.339C147.092 328.576 155.908 324.616 159.939 324.279C169.716 323.461 177.521 328.281 185.16 333.709C185.8 334.163 186.439 334.619 187.078 335.074L187.08 335.075C196.924 342.087 206.798 349.121 218.395 353.147C226.555 355.98 234.828 358.306 243.525 358.845C245.184 358.948 246.831 359.213 248.48 359.478L248.481 359.479C249.603 359.659 250.726 359.839 251.853 359.969C252.276 360.018 252.723 359.866 253.169 359.714C253.375 359.644 253.581 359.574 253.784 359.524C253.694 359.363 253.611 359.197 253.527 359.031C253.343 358.665 253.159 358.299 252.906 357.99C252.108 357.019 251.283 356.058 250.395 355.171C231.714 336.544 217.142 310.966 217.267 309.95C217.654 310.206 219.617 312.759 222.026 315.892L222.026 315.893C224.889 319.616 228.38 324.157 230.603 326.632C240.009 337.104 249.766 347.27 259.597 357.35C270.84 368.877 277.716 382.652 281.214 398.195C283.007 406.161 284.405 414.168 283.847 422.471C283.442 428.509 283.366 434.569 283.291 440.629V440.63C283.259 443.159 283.228 445.687 283.173 448.214C283.142 449.617 283.11 451.02 283.079 452.423L283.079 452.428C282.932 458.977 282.786 465.527 282.702 472.078L282.701 472.12L282.7 472.229C282.685 474.008 282.58 486.008 279.247 497.856C276.615 507.216 271.571 516.505 269.588 520.157C269.198 520.876 268.926 521.377 268.815 521.616C267.401 524.659 267.502 526.634 270.229 526.981C272.54 527.275 275.477 526.949 276.227 523.251L276.268 523.047C276.464 522.072 276.672 521.042 277.188 520.244C277.491 519.777 278.05 519.476 278.609 519.174L278.609 519.174L278.61 519.174C278.858 519.04 279.106 518.907 279.332 518.758C279.389 518.903 279.262 519.408 279.086 520.112L279.086 520.113C278.443 522.681 277.136 527.898 281.627 527.954C286.181 528.012 285.931 525.414 285.774 523.785C285.749 523.523 285.726 523.286 285.726 523.089V523.045C285.726 521.626 285.726 519.525 286.914 519.331C289.559 518.899 289.682 521.455 289.77 523.297L289.771 523.313C289.793 523.771 289.781 524.229 289.768 524.681V524.681V524.681C289.715 526.591 289.666 528.38 292.252 529.49C295.098 530.711 297.206 529.887 299.042 528.021C300.982 526.049 300.429 523.905 298.61 522.076C294.889 518.337 295.038 513.416 295.236 508.878C295.634 499.731 296.377 490.598 297.12 481.467C297.318 479.029 297.517 476.592 297.708 474.154C297.98 470.702 298.305 467.255 298.63 463.807L298.63 463.807L298.631 463.806L298.631 463.806L298.631 463.805L298.631 463.805L298.631 463.804L298.631 463.804L298.631 463.803L298.631 463.803L298.631 463.802L298.631 463.798C298.923 460.705 299.215 457.612 299.468 454.516C299.848 449.873 300.202 445.228 300.557 440.584C300.971 435.163 301.385 429.742 301.838 424.324C301.976 422.685 302.2 421.051 302.425 419.417C302.761 416.979 303.096 414.542 303.138 412.098C303.202 408.426 303.035 404.751 302.867 401.074V401.074V401.074V401.074V401.073V401.073V401.073V401.072V401.072V401.072V401.072V401.071C302.772 398.978 302.676 396.884 302.624 394.791C302.58 393.057 302.586 391.322 302.592 389.586C302.6 387.136 302.609 384.686 302.477 382.244C302.359 380.037 302.287 377.818 302.215 375.598V375.597C302.011 369.326 301.807 363.045 300.546 356.99C299.609 352.497 296.389 344.062 294.151 338.199C292.87 334.843 291.91 332.329 291.884 331.879C292.81 332.62 299.681 343.66 301.878 348.578L301.92 348.673C304.017 353.368 304.126 353.612 308.7 351.621C317.563 347.762 326.767 345.187 336.36 344.04C337.022 343.961 337.699 344.027 338.377 344.094C338.962 344.151 339.548 344.208 340.126 344.173C340.758 344.134 341.38 343.938 342.003 343.742C342.28 343.655 342.558 343.567 342.836 343.494C342.644 343.256 342.466 342.997 342.287 342.738C341.899 342.173 341.512 341.609 340.981 341.267C339.407 340.253 337.797 339.294 336.187 338.334L336.187 338.333L336.186 338.333L336.185 338.333L336.184 338.332L336.184 338.332L336.183 338.331L336.182 338.331L336.181 338.33L336.18 338.33L336.18 338.329L336.178 338.329C334.578 337.375 332.978 336.421 331.413 335.413C328.221 333.36 326.257 331.982 323.591 330.112L323.59 330.111L323.589 330.111C322.953 329.665 322.277 329.191 321.535 328.672C321.025 328.316 319.064 326.293 318.752 325.653C319.42 325.449 339.705 332.229 346.244 340.416C351.929 347.534 357.273 354.939 362.49 362.411C369.019 371.764 375.335 381.268 381.609 390.796C382.1 391.543 382.593 392.29 383.085 393.037C388.246 400.868 393.411 408.705 398.198 416.762L398.725 417.648L398.725 417.649C402.936 424.732 407.2 431.904 410.183 439.527C414.367 450.223 417.901 461.226 418.113 473.019C418.17 476.207 418.641 479.384 419.113 482.563L419.113 482.564C419.501 485.176 419.889 487.79 420.047 490.413C420.424 496.642 418.997 502.636 416.772 508.511C416.343 509.644 416.903 511.183 417.434 512.644L417.434 512.645C417.593 513.082 417.749 513.513 417.876 513.923C417.956 514.184 419.207 514.251 419.868 514.133C422.225 513.715 422.723 512.077 422.978 509.877C423.189 508.059 423.952 506.286 424.696 504.557C424.79 504.338 424.884 504.12 424.977 503.903C425.156 503.482 426.356 503.053 426.725 503.262C427.224 503.546 427.607 504.436 427.628 505.079C427.649 505.732 427.58 506.398 427.512 507.061L427.512 507.061V507.061C427.41 508.052 427.309 509.035 427.508 509.961C427.841 511.512 428.743 513.044 429.756 514.292C430.12 514.74 432.265 514.554 432.347 514.28C432.673 513.202 432.749 512.045 432.824 510.892L432.824 510.89L432.825 510.887L432.825 510.885C432.845 510.582 432.864 510.278 432.889 509.977C432.903 509.808 432.867 509.634 432.832 509.461C432.795 509.277 432.757 509.093 432.779 508.916C432.946 507.547 433.134 506.181 433.323 504.815L433.323 504.815L433.323 504.814L433.323 504.813L433.323 504.813L433.323 504.812L433.324 504.811L433.33 504.766C433.393 504.308 433.456 503.851 433.519 503.393C433.802 503.729 434.086 504.065 434.37 504.4C435.367 505.579 436.364 506.758 437.343 507.952C437.406 508.029 437.404 508.165 437.402 508.298C437.399 508.434 437.397 508.567 437.465 508.633C437.776 508.938 438.08 509.263 438.385 509.59L438.385 509.59L438.385 509.59L438.386 509.591L438.386 509.591L438.386 509.591L438.387 509.592L438.387 509.592L438.388 509.592C439.261 510.529 440.14 511.471 441.221 511.932C441.773 512.167 443.913 510.464 444.057 509.462C444.284 507.883 443.976 505.623 442.95 504.571C438.204 499.705 435.08 493.928 433.627 487.474C432.897 484.228 432.621 480.884 432.345 477.535C432.168 475.387 431.991 473.238 431.694 471.111C431.558 470.139 431.422 469.166 431.286 468.194C429.866 458.017 428.445 447.837 426.699 437.714C425.397 430.165 423.893 422.651 422.39 415.137C421.633 411.352 420.876 407.566 420.144 403.776C420.04 403.239 420.123 402.654 420.203 402.091L420.204 402.084L420.21 402.038C420.217 401.99 420.224 401.943 420.23 401.895C421.737 390.91 419.656 380.207 417.126 369.67L416.684 367.829C413.456 354.376 410.216 340.87 405.737 327.815C403.062 320.017 399.448 312.541 395.834 305.065C394.252 301.793 392.671 298.522 391.168 295.224C390.604 293.985 390.052 292.738 389.501 291.492C388.114 288.356 386.727 285.219 385.127 282.196L384.648 281.291C381.055 274.502 377.452 267.696 373.362 261.206C368.268 253.125 362.102 245.729 353.995 240.565C347.444 236.392 340.402 232.877 333.284 229.735C325.422 226.265 317.412 223.131 309.402 219.998L309.393 219.995C306.985 219.053 304.576 218.111 302.172 217.159C300.555 216.52 298.91 215.949 297.265 215.379L297.265 215.379C295.373 214.723 293.482 214.067 291.634 213.306C291.072 213.074 290.683 212.425 290.293 211.775C290.114 211.476 289.935 211.177 289.739 210.919C290.025 210.913 290.316 210.886 290.608 210.86C291.234 210.802 291.859 210.745 292.43 210.896C307.865 214.975 322.444 221.271 337.037 227.573C339.28 228.541 341.523 229.51 343.77 230.471C355.104 235.318 364.745 242.193 372.149 251.91C376.774 257.98 381.238 264.361 384.542 271.198C388.183 278.732 394.392 282.827 401.27 286.019C409.333 289.761 417.85 292.751 427 291.974C432.157 291.536 437.284 290.68 442.4 289.826L442.826 289.755L443.579 289.63L444.254 289.518C450.287 288.518 457.975 292.016 456.672 298.581C455.851 302.717 452.826 304.767 449.336 305.702C448.047 306.047 446.757 306.409 445.466 306.771C437.548 308.992 429.568 311.23 421.217 309.787C417.146 309.083 413.151 307.939 409.156 306.794C407.222 306.24 405.288 305.686 403.346 305.182C402.808 305.042 402.246 304.995 401.684 304.947L401.683 304.947L401.682 304.947L401.682 304.947L401.681 304.947L401.681 304.947L401.68 304.947L401.68 304.947L401.679 304.947L401.679 304.946L401.678 304.946C401.417 304.924 401.155 304.902 400.896 304.871C400.968 305.073 401.034 305.278 401.101 305.482C401.242 305.922 401.384 306.362 401.583 306.774C409.129 322.396 414.771 338.649 418.137 355.696C418.813 359.12 419.603 362.523 420.392 365.925L420.393 365.927C421.379 370.175 422.364 374.421 423.128 378.708C423.788 382.409 424.124 386.166 424.46 389.924L424.46 389.925L424.46 389.925L424.46 389.926L424.46 389.926L424.46 389.927L424.46 389.928L424.46 389.928L424.46 389.929L424.461 389.929L424.461 389.93L424.461 389.93C424.647 392.014 424.833 394.098 425.075 396.172C425.199 397.242 425.321 398.312 425.442 399.382L425.444 399.396V399.397C425.98 404.118 426.517 408.842 427.305 413.523C428.198 418.834 429.167 424.133 430.135 429.431C431.541 437.122 432.947 444.812 434.123 452.538C434.882 457.529 435.303 462.57 435.723 467.613L435.723 467.614L435.723 467.617C436.01 471.059 436.297 474.503 436.693 477.932C437.752 487.119 439.739 495.98 446.622 502.924C449.161 505.486 449.47 509.985 447.678 513.024C445.712 516.357 442.613 517.493 438.369 516.526C437.523 516.333 436.475 516.1 435.757 516.419C432.082 518.052 428.556 519.36 425.073 515.903C424.791 515.623 423.133 516.483 422.282 517.061C416.63 520.904 411.788 517.102 411.542 511.204C411.454 509.078 411.894 506.807 412.617 504.79C415.526 496.674 415.466 488.373 414.63 479.973C414.437 478.033 414.304 476.085 414.17 474.136C413.934 470.683 413.697 467.231 413.13 463.833C410.708 449.332 405.276 435.903 397.409 423.527C386.572 406.478 375.587 389.521 364.506 372.63C362.152 369.043 359.633 365.566 357.113 362.089L357.112 362.088L357.112 362.088C355.089 359.297 353.067 356.505 351.129 353.656C348.277 349.461 344.137 349.885 340.339 350.274L340.338 350.274C339.718 350.337 339.108 350.4 338.514 350.441C331.599 350.922 325.158 353.293 318.714 355.666L318.712 355.666L318.712 355.666L318.712 355.666L318.711 355.666L318.711 355.667L318.711 355.667L318.711 355.667L318.71 355.667L318.71 355.667L318.71 355.667L318.71 355.667C315.721 356.768 312.731 357.868 309.693 358.78C305.481 360.045 305.835 362.489 306.203 365.031C306.278 365.549 306.353 366.07 306.391 366.587C306.555 368.842 306.801 371.092 307.047 373.341L307.047 373.342C307.348 376.096 307.649 378.85 307.801 381.612L307.887 383.188L307.941 384.17C308.476 393.885 309.012 403.607 309.096 413.329C309.127 416.849 308.692 420.37 308.256 423.895L308.256 423.895L308.256 423.895L308.256 423.896L308.256 423.896L308.256 423.896L308.256 423.897L308.256 423.897L308.256 423.898L308.256 423.898L308.256 423.898L308.256 423.899C308.001 425.957 307.747 428.017 307.585 430.078C307.187 435.15 306.825 440.225 306.464 445.3C305.974 452.178 305.483 459.055 304.903 465.926C304.686 468.489 304.489 471.056 304.292 473.625C303.608 482.547 302.923 491.478 301.405 500.26C299.982 508.49 301.531 515.715 304.511 523.089C306.209 527.293 302.068 533.156 297.21 533.205C296.755 533.209 296.279 533.242 295.795 533.274L295.794 533.274C293.331 533.441 290.641 533.622 289.37 530.287C289.265 530.01 287.499 529.875 287.213 530.236C285.676 532.174 283.786 531.966 281.902 531.76L281.901 531.76C281.225 531.686 280.549 531.612 279.891 531.637C279.223 531.663 278.548 531.646 277.873 531.629C276.651 531.599 275.43 531.569 274.256 531.792C270.582 532.489 267.458 531.362 265.22 528.721C263.033 526.14 263.633 523.076 265.599 520.119C266.267 518.862 266.936 517.618 267.601 516.382L267.602 516.381L267.603 516.38L267.603 516.379L267.604 516.378L267.604 516.377L267.605 516.376L267.606 516.374L267.606 516.373C270.102 511.734 272.542 507.2 274.643 502.515ZM452.88 298.309C452.626 297.942 452.394 297.504 452.161 297.067C451.649 296.105 451.137 295.142 450.402 294.922C447.924 294.18 445.092 293.541 442.629 294.02C432.699 295.949 422.853 297.828 412.891 294.327C412.055 294.034 411.215 293.746 410.376 293.459L410.376 293.459C403.754 291.191 397.137 288.926 392.123 283.549C391.927 283.34 391.601 283.252 391.274 283.165C391.122 283.125 390.97 283.084 390.831 283.031C390.817 283.251 390.775 283.485 390.734 283.718C390.644 284.223 390.555 284.728 390.739 285.095C392.684 288.983 394.668 292.857 396.83 296.626C397.388 297.599 398.508 298.522 399.57 298.887C401.077 299.404 402.581 299.94 404.087 300.476L404.09 300.477C409.009 302.23 413.936 303.985 418.999 305.1C427.069 306.876 435.249 305.386 443.101 303.308C443.74 303.139 444.415 303.008 445.105 302.873C447.928 302.324 451.007 301.724 452.88 298.309ZM155.398 155.089C150.019 157.753 144.525 159.181 138.886 158.006C137.089 157.632 134.919 155.311 134.358 153.448C132.937 148.731 132.039 143.847 131.144 138.98L131.144 138.977C131.041 138.419 130.939 137.862 130.835 137.304C130.066 133.156 132.575 130.583 136.037 129.518C143.474 127.229 151.046 126.095 158.397 130.086C166.939 134.723 166.027 147.276 160.564 151.169C159.24 152.113 157.954 153.109 156.568 154.185C156.186 154.48 155.798 154.782 155.398 155.089ZM156.982 135.697C156.876 135.58 156.771 135.431 156.666 135.283C156.439 134.962 156.211 134.64 155.971 134.63C154.91 134.588 153.845 134.654 152.78 134.72L152.78 134.72C152.389 134.744 151.998 134.768 151.607 134.787C151.76 135.093 151.918 135.397 152.076 135.7C152.43 136.378 152.784 137.055 153.07 137.761C153.53 138.895 153.936 140.051 154.342 141.208L154.342 141.208L154.342 141.208C154.474 141.585 154.606 141.963 154.741 142.339C154.901 142.791 155.051 143.246 155.2 143.702L155.2 143.702L155.2 143.702L155.2 143.702L155.2 143.702L155.2 143.702L155.2 143.702L155.2 143.702L155.2 143.703L155.2 143.703C155.268 143.909 155.335 144.115 155.404 144.321C155.606 144.213 155.819 144.116 156.033 144.02C156.496 143.812 156.959 143.603 157.306 143.273C159.776 140.922 158.808 138.496 156.982 135.697ZM262.325 390.353C262.262 389.499 262.2 388.638 262.136 387.77C262.02 387.338 261.864 387.026 261.73 386.761C261.62 386.542 261.525 386.353 261.482 386.154C261.156 384.642 260.848 383.126 260.54 381.61L260.539 381.609L260.539 381.608L260.539 381.608L260.539 381.607L260.539 381.606L260.539 381.605L260.538 381.604L260.538 381.603C259.865 378.294 259.192 374.986 258.341 371.723C258.294 371.542 258.259 371.324 258.22 371.088C258.023 369.871 257.754 368.21 255.414 368.987C253.016 369.783 253.229 370.944 253.615 373.049L253.638 373.175L253.672 373.364C255.125 381.418 256.143 389.561 257.028 397.703C257.706 403.934 258.047 410.208 258.336 416.472C258.441 418.751 258.59 421.035 258.739 423.32L258.739 423.322L258.739 423.323L258.739 423.325L258.739 423.327L258.739 423.328L258.739 423.33L258.739 423.332L258.739 423.333C259.164 429.835 259.588 436.345 259.007 442.758C258.285 450.718 253.388 457.035 246.344 461.268C239.651 465.289 233.28 469.519 230.629 477.528C228.992 482.472 230.588 485.985 235.163 486.118C236.007 486.142 236.863 485.749 237.719 485.355C238.112 485.174 238.504 484.993 238.896 484.853C238.601 484.526 238.324 484.15 238.046 483.773C237.432 482.938 236.817 482.104 236.007 481.81C233.82 481.019 233.664 480.486 234.541 478.203C236.349 473.497 239.119 469.945 243.461 467.436C250.381 463.438 256.483 458.397 260.25 451.258C264.864 442.514 267.024 433.162 265.605 423.156C264.752 417.138 264.121 411.085 263.521 405.034C263.043 400.226 262.692 395.406 262.325 390.353ZM290.489 250.848C288.354 238.659 286.277 226.832 284.02 215.04C282.484 207.02 276.845 202.101 270.589 197.567C269.852 197.033 269.107 196.501 268.361 195.969C264.121 192.941 259.821 189.871 256.472 186.026C250.651 179.342 240.967 163.378 241.439 155.049C241.754 149.498 243.7 143.041 243.7 143.041C243.7 143.041 242.76 154.522 243.7 158.025C247.009 170.363 256.046 180.14 264.378 186.69C266.295 188.197 268.28 189.632 270.264 191.067L270.264 191.068L270.264 191.068L270.264 191.068L270.264 191.068L270.265 191.068L270.265 191.069L270.265 191.069C274.174 193.897 278.079 196.722 281.456 200.083C284.729 203.34 287.363 207.617 288.045 212.823C288.436 215.801 288.917 218.749 289.4 221.708C290.375 227.681 291.357 233.696 291.611 240.09C291.901 247.427 295.857 258.105 297.742 263.194C298.345 264.822 298.736 265.878 298.727 266.068C298.043 265.813 292.984 256.993 291.142 252.836C290.907 252.304 290.693 251.763 290.489 250.848ZM228.774 88.6364C221.032 84.8968 213.203 81.3402 205.022 77.7089C201.132 76.7481 197.456 75.7911 193.831 74.8472L193.83 74.8471L193.83 74.847C192.626 74.5335 191.427 74.2214 190.228 73.9112C181.689 71.7016 173.079 71.9404 164.681 74.1989C160.834 75.2333 157.161 76.9276 153.498 78.6168L153.497 78.6171L153.497 78.6171L153.497 78.6172L153.497 78.6172L153.497 78.6172L153.497 78.6172C152.385 79.1301 151.274 79.6425 150.159 80.1358C149.791 80.2989 149.627 80.9247 149.463 81.5504C149.387 81.8406 149.311 82.1308 149.215 82.3748C149.471 82.4274 149.728 82.4956 149.985 82.5639C150.583 82.7225 151.18 82.8811 151.764 82.8429C152.158 82.8171 152.531 82.5823 152.91 82.3438L152.91 82.3437C153.151 82.1922 153.394 82.0392 153.646 81.9373C160.912 79.0025 168.472 77.2217 176.29 77.0055C188.536 76.6667 200.153 79.701 211.366 84.3862C213.971 85.4746 216.545 86.6359 219.119 87.7973C221.737 88.9781 224.355 90.1589 227.004 91.2631C227.756 91.5763 228.651 91.5445 229.547 91.5128C229.959 91.4981 230.372 91.4835 230.771 91.5026C230.563 91.1924 230.379 90.8355 230.195 90.4785L230.194 90.4784L230.194 90.4783C229.796 89.7082 229.398 88.938 228.774 88.6364ZM186.492 113.798C185.723 111.064 188.729 111.025 191.287 111.335C196.54 111.971 201.845 112.179 207.15 112.387C209.329 112.473 211.509 112.558 213.686 112.674C214.186 112.7 214.892 112.671 215.61 112.64L215.611 112.64H215.611H215.611H215.611H215.611C217.2 112.574 218.852 112.504 218.5 113.031C210.862 124.457 189.488 124.457 186.492 113.798ZM139.044 163.979C137.868 170.827 139.503 175.214 146.997 176.922C149.665 177.53 152.972 175.87 154.837 174.83C157.73 173.217 160.521 171.421 163.313 169.624L163.314 169.624C164.25 169.022 165.186 168.419 166.126 167.824C166.036 168.702 168.597 174.654 170.315 175.725C171.503 174.869 171.979 174.02 172.481 173.124C172.641 172.839 172.804 172.549 172.993 172.252C173.274 171.811 173.394 171.27 173.515 170.726C173.576 170.448 173.638 170.17 173.722 169.904C173.999 169.021 174.08 168.042 174.162 167.063C174.372 164.534 174.583 162.001 178.164 161.103C178.314 161.065 178.499 161.041 178.698 161.016C179.584 160.902 180.746 160.752 180.29 159.189C179.732 157.275 178.162 157.785 177.448 158.045C174.392 159.155 171.404 160.508 168.511 162.005C165.114 163.763 161.742 165.571 158.37 167.378C155.225 169.064 152.08 170.75 148.914 172.396C145.76 174.036 143.385 171.945 141.331 169.374C139.837 167.505 140.188 164.097 140.399 162.051C140.48 161.266 140.54 160.682 140.467 160.463C139.724 161.199 139.188 163.14 139.044 163.979ZM166.29 167.72L166.126 167.824C166.13 167.78 166.141 167.749 166.159 167.732C166.187 167.704 166.232 167.702 166.29 167.72ZM166.29 167.72C167.018 167.259 167.748 166.804 168.483 166.355C169.187 165.925 170.008 165.684 170.829 165.444C171.207 165.333 171.584 165.222 171.951 165.093C171.752 165.656 171.626 166.458 171.491 167.313C171.261 168.778 171.006 170.401 170.315 171.25C170.172 171.427 169.291 170.528 168.374 169.592L168.374 169.592C167.527 168.727 166.648 167.83 166.29 167.72ZM273.742 454.934C273.778 454.259 273.799 453.615 273.82 452.995C273.869 451.541 273.913 450.217 274.122 448.92C274.21 448.374 274.626 447.881 275.043 447.388C275.232 447.164 275.422 446.94 275.58 446.711C275.74 446.938 275.945 447.167 276.151 447.396C276.593 447.888 277.036 448.38 277.017 448.854C276.61 459.151 276.103 469.596 271.195 478.838C269.276 482.452 265.222 485.244 261.57 487.479C259.987 488.448 256.383 487.827 254.727 486.571C252.054 484.544 251.815 480.959 253.453 478.024C254.597 475.976 256.572 474.296 258.459 472.813C258.887 472.477 259.733 472.672 260.578 472.867C260.965 472.957 261.352 473.046 261.698 473.085C261.541 473.325 261.39 473.571 261.239 473.817C260.906 474.361 260.572 474.906 260.165 475.388C259.762 475.865 259.309 476.314 258.856 476.762L258.856 476.762L258.855 476.762L258.855 476.763C258.005 477.604 257.159 478.44 256.665 479.454C256.133 480.545 256.154 482.759 256.875 483.39C257.76 484.164 259.914 484.393 261.031 483.851C267.969 480.479 270.31 474.05 271.595 467.032C272.309 463.126 273.014 459.218 273.742 454.934ZM139.015 118.889C144.881 119.602 155.655 112.121 155.655 110.508C155.655 108.895 141.035 107.233 135.201 106.672C132.522 106.414 130.944 107.194 130.728 109.893C130.419 113.768 134.735 118.369 139.015 118.889ZM246.518 487.353C239.879 483.09 241.199 478.785 247.553 472.449C248.291 471.713 249.274 470.986 250.25 470.793C250.965 470.652 251.741 470.825 252.518 470.997C252.857 471.072 253.196 471.148 253.531 471.197C253.391 471.412 253.259 471.633 253.126 471.854C252.837 472.337 252.547 472.819 252.187 473.243C250.4 475.347 248.598 477.443 246.731 479.476C244.701 481.685 246.362 482.595 248.075 483.469C248.298 483.582 248.579 483.622 248.852 483.661C249.209 483.711 249.553 483.76 249.733 483.967C250.27 484.584 250.697 485.297 251.123 486.009C251.296 486.298 251.468 486.586 251.648 486.868C251.377 486.949 251.107 487.038 250.837 487.127L250.837 487.127C250.21 487.333 249.583 487.54 248.94 487.639C248.214 487.751 247.446 487.591 246.518 487.353ZM130.277 516.881C128.759 517.017 127.24 517.152 125.523 517.465C124.62 518.205 123.677 518.889 122.748 519.561C120.643 521.087 118.613 522.558 117.293 524.509C116.056 526.338 116.29 529.882 117.167 532.155C117.644 533.39 119.973 534.054 121.873 534.596C122.13 534.669 122.38 534.74 122.615 534.81C123.631 535.111 125.046 534.769 126.039 534.252C126.76 533.877 127.341 533.232 127.921 532.586C128.175 532.304 128.429 532.022 128.694 531.762C128.352 531.63 127.963 531.431 127.574 531.232C126.729 530.8 125.885 530.368 125.521 530.623C123.566 531.991 122.913 530.654 122.39 529.584C122.246 529.288 122.111 529.013 121.962 528.82C121.451 528.163 121.771 526.211 122.427 525.424C123.284 524.397 124.311 523.516 125.34 522.632C126.109 521.972 126.879 521.31 127.581 520.586C128.308 519.836 128.894 518.949 129.48 518.061C129.743 517.664 130.005 517.266 130.281 516.881L130.277 516.881Z" fill="#323232"/>
<path fill-rule="evenodd" clip-rule="evenodd" d="M14.2211 186.886C5.11984 188.386 -0.749103 198.093 1.11244 208.566C2.20345 214.704 5.70764 220.192 10.2538 223.836L11.5147 244.429C11.6375 246.407 13.7356 248.149 15.0332 247.334L23.139 241.85L33.5127 250.344C35.1734 251.767 36.7746 250.445 36.1977 248.112L30.281 224.486C33.5969 220.537 35.1623 214.067 34.071 206.755C32.2095 194.282 23.3223 185.386 14.2211 186.886ZM20.9623 228.435C23.1358 228.554 25.1249 228.126 26.8684 227.23L30.7956 242.573L23.3462 236.699C22.6138 236.141 21.7988 236.063 21.2266 236.491L15.4052 240.655L14.5681 226.65C16.6253 227.682 18.7877 228.315 20.9623 228.435ZM15.0638 192.08C21.8897 191.142 28.555 197.814 29.9512 206.981C31.3473 216.149 26.9456 223.429 20.1197 223.241C17.7181 223.175 15.3363 222.271 13.197 220.786C13.0841 220.69 12.9651 220.606 12.8417 220.533C9.06911 217.846 6.10982 213.395 5.23226 208.34C3.8361 200.297 8.23781 193.017 15.0638 192.08Z" fill="#323232"/>
<path fill-rule="evenodd" clip-rule="evenodd" d="M508.547 338.634C517.648 340.134 523.517 349.84 521.656 360.314C520.565 366.452 517.06 371.94 512.514 375.584L511.253 396.176C511.13 398.155 509.032 399.896 507.735 399.082L499.629 393.598L489.255 402.091C487.595 403.514 485.993 402.193 486.57 399.86L492.487 376.234C489.171 372.284 487.606 365.815 488.697 358.502C490.559 346.029 499.446 337.134 508.547 338.634ZM501.806 380.182C499.632 380.302 497.643 379.873 495.9 378.977L491.972 394.32L499.422 388.447C500.154 387.888 500.969 387.81 501.541 388.239L507.363 392.403L508.2 378.397C506.143 379.43 503.98 380.063 501.806 380.182ZM507.704 343.827C500.878 342.89 494.213 349.561 492.817 358.729C491.421 367.896 495.822 375.176 502.648 374.989C505.05 374.923 507.432 374.019 509.571 372.533C509.684 372.437 509.803 372.353 509.926 372.281C513.699 369.593 516.658 365.142 517.536 360.087C518.932 352.045 514.53 344.765 507.704 343.827Z" fill="#323232"/>
<path d="M85.8839 465.656L113.287 480.502L85.8839 495.467L70.8932 522.654L55.9025 495.467L28.4996 480.502L55.9025 465.656L70.8932 438.35L85.8839 465.656Z" fill="#FBBC05" stroke="white" stroke-miterlimit="10"/>
<path d="M435.505 20.3423C435.505 31.5771 426.345 40.6847 415.046 40.6847C403.746 40.6847 394.587 31.5771 394.587 20.3423C394.587 9.10758 403.746 0 415.046 0C426.345 0 435.505 9.10758 435.505 20.3423Z" fill="#FBBC05"/>
</svg>
